<svg width="62" height="62" viewBox="0 0 62 62" fill="none" xmlns="http://www.w3.org/2000/svg">
<rect x="1" y="1" width="59.3572" height="59.3572" rx="19" stroke="#FFFCF9" stroke-width="2"/>
<path d="M30.6316 30.9025L29.572 29.8409L30.6316 30.9025ZM37.7904 23.7571L38.8501 24.8187L37.7904 23.7571ZM46.4492 16.613C46.45 15.7845 45.779 15.1123 44.9506 15.1116L31.4506 15.099C30.6222 15.0982 29.95 15.7692 29.9492 16.5976C29.9484 17.4261 30.6194 18.0982 31.4478 18.099L43.4478 18.1102L43.4366 30.1102C43.4359 30.9386 44.1068 31.6108 44.9352 31.6116C45.7637 31.6123 46.4359 30.9414 46.4366 30.113L46.4492 16.613ZM16.3141 45.1935L17.3737 46.2551L31.6913 31.9642L30.6316 30.9025L29.572 29.8409L15.2544 44.1318L16.3141 45.1935ZM30.6316 30.9025L31.6913 31.9642L38.8501 24.8187L37.7904 23.7571L36.7307 22.6954L29.572 29.8409L30.6316 30.9025ZM37.7904 23.7571L38.8501 24.8187L46.0089 17.6732L44.9492 16.6116L43.8895 15.5499L36.7307 22.6954L37.7904 23.7571Z" fill="#FFFCF9"/>
</svg>
